<?xml version="1.0" ?>
<!-- Uploaded to: SVG Repo, www.svgrepo.com, Generator: SVG Repo Mixer Tools -->
<svg width="800px" height="800px" viewBox="0 0 24 24" version="1.1" xml:space="preserve" xmlns="http://www.w3.org/2000/svg" xmlns:xlink="http://www.w3.org/1999/xlink">
<style type="text/css">
	.st0{opacity:0.2;fill:none;stroke:#000000;stroke-width:5.000000e-02;stroke-miterlimit:10;}
</style>
<g id="Layer_Grid"/>
<g id="Layer_2">
<path d="M12.1,4.6L5.4,2.1C5,1.9,4.7,2,4.4,2.2C4.2,2.4,4,2.7,4,3v16c0,1.7,1.3,3,3,3h6h2h2c1.7,0,3-1.3,3-3v-4c0-1.7-1.3-3-3-3h-3   V7.4C14,6.1,13.2,5,12.1,4.6z M12,13v7h-2v-2.3c0-0.4-0.3-0.8-0.8-0.8H8.8C8.3,17,8,17.3,8,17.8V20H7c-0.6,0-1-0.4-1-1V4.4l5.4,2   C11.7,6.6,12,7,12,7.4V13z M17,14c0.6,0,1,0.4,1,1v4c0,0.6-0.4,1-1,1v-1.3c0-0.4-0.3-0.8-0.8-0.8h-0.5c-0.4,0-0.8,0.3-0.8,0.8V20   h-1v-6H17z"/>
<rect height="1" width="1" x="7" y="7"/>
<rect height="1" width="1" x="8" y="12"/>
<rect height="1" width="1" x="9" y="9"/>
<rect height="1" width="1" x="10" y="14"/>
<rect height="1" width="1" x="16" y="15"/>
</g>
</svg>